***PLEASE HELP TO SEED, THANKS!***

Screenshot: http://i.imgur.com/adDC4xw.jpg

CATS.The.Musical.480p.avi
  General
    Complete name : H:CATS.The.Musical.480p.avi
    Format : AVI
    Format/Info : Audio Video Interleave
    File size : 887 MiB
    Duration : 2h 0mn
    Overall bit rate : 1 027 Kbps
    Writing library : AVI OpenDML FlasKMPEG plugin release
  Video #0
    ID : 0
    Format : MPEG-4 Visual
    Format settings, BVOP : Yes
    Format settings, QPel : No
    Format settings, GMC : No warppoints
    Format settings, Matrix : Default (H.263)
    Codec ID : DX50
    Codec ID/Hint : DivX 5
    Duration : 2h 0mn
    Bit rate : 893 Kbps
    Width : 720 pixels
    Height : 480 pixels
    Display aspect ratio : 3:2
    Frame rate : 23.976 fps
    Standard : NTSC
    Color space : YUV
    Chroma subsampling : 4:2:0
    Bit depth : 8 bits
    Scan type : Progressive
    Compression mode : Lossy
    Bits/(Pixel*Frame) : 0.108
    Stream size : 771 MiB (87%)
    Writing library : DivX 5.0.2 (UTC 2002-05-16)
  Audio #1
    ID : 1
    Format : MPEG Audio
    Format version : Version 1
    Format profile : Layer 3
    Mode : Joint stereo
    Mode extension : MS Stereo
    Codec ID : 55
    Codec ID/Hint : MP3
    Duration : 2h 0mn
    Bit rate mode : Constant
    Bit rate : 128 Kbps
    Channel(s) : 2 channels
    Sampling rate : 48.0 KHz
    Compression mode : Lossy
    Stream size : 111 MiB (12%)
    Alignment : Split accross interleaves
    Interleave, duration : 208 ms (5.00 video frames)



                                                        
88888888ba,   88 88888888888 88        88 888b      88  
88      `"8b  "" 88          88        88 8888b     88  
88        `8b    88          88        88 88 `8b    88  
88         88 88 88aaaaa     88        88 88  `8b   88  
88         88 88 88"""""     88        88 88   `8b  88  
88         8P 88 88          88        88 88    `8b 88  
88      .a8P  88 88          Y8a.    .a8P 88     `8888  
88888888Y"'   88 88           `"Y8888Y"'  88      `888  